HIERARCHY
ROOT Hips
{
	OFFSET 0.00000 0.00000 0.00000
	CHANNELS 6 Xposition Yposition Zposition Zrotation Yrotation Xrotation 
	JOINT LHipJoint
	{
		OFFSET 0 0 0
		CHANNELS 3 Zrotation Yrotation Xrotation
		JOINT LeftUpLeg
		{
			OFFSET 1.77779 -1.88989 0.48267
			CHANNELS 3 Zrotation Yrotation Xrotation
			JOINT LeftLeg
			{
				OFFSET 2.53442 -6.96327 0.00000
				CHANNELS 3 Zrotation Yrotation Xrotation
				JOINT LeftFoot
				{
					OFFSET 2.71068 -7.44755 0.00000
					CHANNELS 3 Zrotation Yrotation Xrotation
					JOINT LeftToeBase
					{
						OFFSET 0.17992 -0.49431 2.22524
						CHANNELS 3 Zrotation Yrotation Xrotation
						End Site
						{
							OFFSET 0.00000 -0.00000 1.14687
						}
					}
				}
			}
		}
	}
	JOINT RHipJoint
	{
		OFFSET 0 0 0
		CHANNELS 3 Zrotation Yrotation Xrotation
		JOINT RightUpLeg
		{
			OFFSET -1.58469 -1.88989 0.48267
			CHANNELS 3 Zrotation Yrotation Xrotation
			JOINT RightLeg
			{
				OFFSET -2.60386 -7.15404 0.00000
				CHANNELS 3 Zrotation Yrotation Xrotation
				JOINT RightFoot
				{
					OFFSET -2.73334 -7.50979 0.00000
					CHANNELS 3 Zrotation Yrotation Xrotation
					JOINT RightToeBase
					{
						OFFSET -0.25618 -0.70384 2.21822
						CHANNELS 3 Zrotation Yrotation Xrotation
						End Site
						{
							OFFSET -0.00000 -0.00000 1.16381
						}
					}
				}
			}
		}
	}
	JOINT LowerBack
	{
		OFFSET 0 0 0
		CHANNELS 3 Zrotation Yrotation Xrotation
		JOINT Spine
		{
			OFFSET 0.03410 2.01612 -0.22230
			CHANNELS 3 Zrotation Yrotation Xrotation
			JOINT Spine1
			{
				OFFSET 0.03465 2.03012 0.00937
				CHANNELS 3 Zrotation Yrotation Xrotation
				JOINT Neck
				{
					OFFSET 0 0 0
					CHANNELS 3 Zrotation Yrotation Xrotation
					JOINT Neck1
					{
						OFFSET -0.00219 1.70459 0.20857
						CHANNELS 3 Zrotation Yrotation Xrotation
						JOINT Head
						{
							OFFSET 0.02518 1.72339 -0.22179
							CHANNELS 3 Zrotation Yrotation Xrotation
							End Site
							{
								OFFSET 0.00282 1.74122 -0.09823
							}
						}
					}
				}
				JOINT LeftShoulder
				{
					OFFSET 0 0 0
					CHANNELS 3 Zrotation Yrotation Xrotation
					JOINT LeftArm
					{
						OFFSET 3.36358 1.00547 -0.37661
						CHANNELS 3 Zrotation Yrotation Xrotation
						JOINT LeftForeArm
						{
							OFFSET 5.06507 -0.00000 0.00000
							CHANNELS 3 Zrotation Yrotation Xrotation
							JOINT LeftHand
							{
								OFFSET 3.60196 -0.00000 0.00000
								CHANNELS 3 Zrotation Yrotation Xrotation
								JOINT LeftFingerBase
								{
									OFFSET 0 0 0
									CHANNELS 3 Zrotation Yrotation Xrotation
									JOINT LeftHandIndex1
									{
										OFFSET 0.45035 -0.00000 0.00000
										CHANNELS 3 Zrotation Yrotation Xrotation
										End Site
										{
											OFFSET 0.36308 -0.00000 0.00000
										}
									}
								}
								JOINT LThumb
								{
									OFFSET 0 0 0
									CHANNELS 3 Zrotation Yrotation Xrotation
									End Site
									{
										OFFSET 0.36862 -0.00000 0.36862
									}
								}
							}
						}
					}
				}
				JOINT RightShoulder
				{
					OFFSET 0 0 0
					CHANNELS 3 Zrotation Yrotation Xrotation
					JOINT RightArm
					{
						OFFSET -3.50159 0.80383 -0.71526
						CHANNELS 3 Zrotation Yrotation Xrotation
						JOINT RightForeArm
						{
							OFFSET -5.36394 -0.00000 0.00000
							CHANNELS 3 Zrotation Yrotation Xrotation
							JOINT RightHand
							{
								OFFSET -3.58035 -0.00000 0.00000
								CHANNELS 3 Zrotation Yrotation Xrotation
								JOINT RightFingerBase
								{
									OFFSET 0 0 0
									CHANNELS 3 Zrotation Yrotation Xrotation
									JOINT RightHandIndex1
									{
										OFFSET -0.66375 -0.00000 0.00000
										CHANNELS 3 Zrotation Yrotation Xrotation
										End Site
										{
											OFFSET -0.53513 -0.00000 0.00000
										}
									}
								}
								JOINT RThumb
								{
									OFFSET 0 0 0
									CHANNELS 3 Zrotation Yrotation Xrotation
									End Site
									{
										OFFSET -0.54330 -0.00000 0.54330
									}
								}
							}
						}
					}
				}
			}
		}
	}
}
MOTION
Frames: 8
Frame Time: .0083333
0.5572 17.9648 -24.1918 0 0 0 0 0 0 -21 0 0 0 0 0 0 0 0 0 0 0 0 0 0 21 0 0 0 0 0 0 0 0 0 0 0 0 0 0 0 0 0 0 0 0 0 0 -16 0 0 21 0 0 11 0 0 0 -8 0 0 0 0 0 0 0 0 0 0 0 0 0 0 0 0 0 0 0 0 8 0 0 0 0 0 0 0 0 0 0 0 0 0 0 0 0 0
0.5572 17.9648 -24.1918 -1.0461 -0.2055 -2.6898 0.0000 0.0000 0.0000 -19.6371 1.8786 7.0839 4.8913 13.2603 40.3508 -0.1508 -10.5116 12.3115 0.6580 -5.1883 -14.4463 0.0000 0.0000 0.0000 22.7719 11.0313 -20.7810 -2.1814 -9.2341 26.5305 -0.0301 -1.7334 -4.3889 -0.0936 -1.9730 5.4310 -0.6610 -1.1438 11.8798 2.8851 -1.4254 0.4301 3.6575 -0.6391 -6.1276 -2.2758 -2.1311 -17.0989 -0.8239 -2.1491 21.3457 -0.1910 -1.2830 9.5966 0.0000 -0.0000 0.0000 -81.7323 -5.7563 25.6735 16.1962 -25.7859 -3.7309 -0.0000 0.0000 -7.6155 33.6385 13.7457 8.9841 -7.1250 0.0000 -0.0000 5.9159 46.2683 0.1858 0.0000 -0.0000 0.0000 90.3674 -2.9604 -0.9432 -11.6143 19.2236 -1.9734 0.0000 0.0000 8.8423 -20.5472 20.6464 -7.5287 7.1250 -0.0000 -0.0000 5.0916 -8.1309 4.3379
0.5347 17.9920 -23.9917 -1.3308 -0.3228 -2.8091 0.0000 0.0000 0.0000 -19.1540 1.8153 6.0688 5.3450 13.7621 42.2928 0.0631 -10.1899 15.4791 0.3660 -3.8863 -10.7570 0.0000 0.0000 0.0000 23.3909 10.5123 -20.0025 -2.1636 -9.1989 26.4195 -0.0394 -1.4470 -4.5751 -0.3061 -3.5568 9.8329 -0.6206 -1.3251 11.7785 3.1651 -1.6360 0.0156 3.9765 -0.7299 -6.4899 -2.5931 -1.9042 -15.3632 -0.9557 -1.7773 21.1966 -0.1159 -1.1503 9.2234 0.0000 -0.0000 0.0000 -82.2951 -4.2804 25.1686 16.1991 -25.7898 -3.7322 -0.0000 0.0000 -7.8027 33.9258 14.8189 9.7613 -7.1250 0.0000 -0.0000 6.1630 47.5688 0.3920 0.0000 -0.0000 0.0000 89.8323 -3.8873 -0.4346 -11.4429 18.9640 -1.9174 0.0000 0.0000 9.1539 -20.2239 21.3283 -7.6317 7.1250 -0.0000 -0.0000 5.3503 -7.4687 4.6302
0.5119 18.0221 -23.8037 -1.7867 -0.4665 -3.0604 0.0000 0.0000 0.0000 -18.4450 1.7563 5.1135 5.8424 14.2739 44.3459 0.3322 -9.8975 18.5956 0.1219 -2.2508 -6.1994 0.0000 0.0000 0.0000 24.2157 10.0419 -18.9831 -2.1259 -9.1236 26.1826 -0.0464 -1.1841 -4.6877 -0.4624 -4.3619 12.0970 -0.1120 -1.2668 11.9301 3.2274 -1.4825 0.0547 3.7325 -0.6691 -6.5562 -2.5051 -1.9415 -15.3959 -1.0126 -1.8361 21.3333 -0.1588 -1.1781 9.2758 0.0000 -0.0000 0.0000 -82.3574 -4.1345 25.5156 15.9819 -25.4961 -3.6382 -0.0000 0.0000 -8.2312 33.5977 14.6268 9.5233 -7.1250 0.0000 -0.0000 5.8478 47.2913 0.3317 0.0000 -0.0000 0.0000 89.8097 -3.7959 -0.4324 -11.3026 18.7506 -1.8720 0.0000 0.0000 9.3668 -20.0704 21.6667 -7.6825 7.1250 -0.0000 -0.0000 5.4742 -7.1402 4.7737
0.4836 18.0555 -23.6202 -2.1543 -0.5857 -3.1852 0.0000 0.0000 0.0000 -17.8497 1.5930 4.0574 6.3458 14.7553 46.3543 0.5699 -9.8624 21.0742 0.0693 -1.6987 -4.6737 0.0000 0.0000 0.0000 24.9296 9.6970 -18.0917 -2.0848 -9.0405 25.9221 -0.0544 -1.0281 -4.9098 -0.4266 -4.1918 11.6169 0.3346 -1.0425 12.0372 3.1601 -1.1312 0.3171 3.3431 -0.5159 -6.3698 -2.2069 -2.1530 -16.6365 -0.9950 -2.1702 21.7619 -0.2626 -1.3098 9.6546 -0.0000 0.0000 0.0000 -82.2485 -4.6748 26.1699 15.8163 -25.2710 -3.5672 -0.0000 0.0000 -8.3970 33.1734 14.9196 9.5538 -7.1250 0.0000 -0.0000 5.4196 47.5636 0.3438 -0.0000 0.0000 0.0000 90.0515 -3.2390 -0.4254 -11.3030 18.7512 -1.8722 0.0000 0.0000 9.1445 -20.0899 21.6820 -7.6956 7.1250 -0.0000 -0.0000 5.4631 -7.1215 4.7660
0.4510 18.0948 -23.4317 -2.7717 -0.8134 -3.1885 0.0000 0.0000 0.0000 -16.9514 1.4660 2.7136 6.8856 15.2348 48.4404 0.7611 -9.8300 22.8282 0.0531 -1.4865 -4.0885 0.0000 0.0000 0.0000 25.9136 9.5492 -17.2689 -2.0436 -8.9563 25.6587 -0.0614 -0.9979 -5.1605 -0.1747 -2.6926 7.4241 0.7872 -0.9200 11.9214 3.3384 -0.8996 0.3884 3.2307 -0.4148 -6.2463 -2.1851 -2.2512 -17.0295 -1.0096 -2.2963 22.0527 -0.2957 -1.3697 9.8313 0.0000 -0.0000 0.0000 -82.3865 -4.5684 26.5063 15.7812 -25.2231 -3.5522 -0.0000 0.0000 -8.5589 33.3567 16.2579 10.4423 -7.1250 0.0000 -0.0000 5.5301 49.1465 0.5671 0.0000 -0.0000 0.0000 89.9068 -3.0434 -0.1061 -11.2804 18.7168 -1.8649 0.0000 0.0000 9.1023 -19.5686 21.8404 -7.5332 7.1250 -0.0000 -0.0000 5.8048 -7.0352 5.0769
0.4219 18.1176 -23.2446 -3.2939 -1.1371 -3.2692 0.0000 0.0000 0.0000 -16.1531 1.5021 1.4102 7.4514 15.7005 50.5617 0.8447 -9.5981 23.3574 0.0456 -1.3785 -3.7909 0.0000 0.0000 0.0000 26.8022 9.4504 -16.4100 -2.0191 -8.9057 25.5008 -0.0722 -0.8928 -5.4867 -0.2292 -3.0815 8.5057 1.0745 -0.8919 11.8413 3.5735 -0.8051 0.2333 3.3033 -0.3718 -6.3718 -2.4053 -2.2233 -16.2294 -1.0130 -2.2227 21.9449 -0.2395 -1.3543 9.6465 0.0000 0.0000 0.0000 -82.7462 -3.8593 26.3808 15.7303 -25.1535 -3.5305 -0.0000 0.0000 -8.6060 33.7583 17.7273 11.5035 -7.1250 0.0000 -0.0000 5.8446 50.9201 0.8550 0.0000 0.0000 0.0000 89.5798 -3.2468 0.2646 -11.1701 18.5485 -1.8297 0.0000 0.0000 9.4981 -19.1515 22.0024 -7.4131 7.1250 -0.0000 -0.0000 6.0803 -6.9295 5.3332
0.3965 18.1217 -23.0671 -3.5781 -1.3264 -3.3234 0.0000 0.0000 0.0000 -15.6361 1.4621 0.1444 8.0342 16.1443 52.6857 0.7524 -9.4852 22.4448 0.1240 -2.2702 -6.2530 0.0000 0.0000 0.0000 27.3707 9.2879 -15.6493 -1.9994 -8.8647 25.3731 -0.0852 -0.8059 -5.8698 -0.2604 -3.2828 9.0670 1.3086 -0.7686 11.7764 3.5780 -0.6079 0.1495 3.1420 -0.2815 -6.4364 -2.2775 -2.2889 -15.7989 -1.0461 -2.3549 21.8481 -0.2829 -1.4082 9.5302 -0.0000 -0.0000 0.0000 -82.8316 -3.5464 26.5842 15.6202 -25.0030 -3.4839 -0.0000 0.0000 -8.5191 33.6697 18.6179 12.0064 -7.1250 0.0000 -0.0000 5.6830 51.9300 0.9723 -0.0000 -0.0000 0.0000 89.5733 -3.2383 0.4752 -11.1057 18.4501 -1.8092 0.0000 0.0000 9.6104 -19.2482 21.8061 -7.3905 7.1250 -0.0000 -0.0000 6.0046 -7.1180 5.2439
